<svg width="65" height="65" viewBox="0 0 65 65" fill="none" xmlns="http://www.w3.org/2000/svg">
<path d="M4.0625 24.6458C4.0625 17.441 4.0625 13.8386 5.46466 11.0867C6.69803 8.66606 8.66606 6.69803 11.0867 5.46466C13.8386 4.0625 17.441 4.0625 24.6458 4.0625H40.3542C47.559 4.0625 51.1614 4.0625 53.9133 5.46466C56.3339 6.69803 58.302 8.66606 59.5353 11.0867C60.9375 13.8386 60.9375 17.441 60.9375 24.6458V40.3542C60.9375 47.559 60.9375 51.1614 59.5353 53.9133C58.302 56.3339 56.3339 58.302 53.9133 59.5353C51.1614 60.9375 47.559 60.9375 40.3542 60.9375H24.6458C17.441 60.9375 13.8386 60.9375 11.0867 59.5353C8.66606 58.302 6.69803 56.3339 5.46466 53.9133C4.0625 51.1614 4.0625 47.559 4.0625 40.3542V24.6458Z" fill="#001E36"/>
<path d="M16.25 45.7361V20.7257C16.25 20.5556 16.3211 20.4583 16.487 20.4583C18.9359 20.4583 21.3837 20.3125 23.8333 20.3125C27.8081 20.3125 32.112 21.6716 33.6206 25.8299C33.976 26.8507 34.1656 27.8958 34.1656 28.9896C34.1656 31.0799 33.6917 32.8056 32.7438 34.1667C30.0958 37.9688 25.5064 37.9097 21.3924 37.9097V45.7118C21.4246 45.9428 21.2278 46.0521 21.037 46.0521H16.5344C16.3448 46.0521 16.25 45.9549 16.25 45.7361ZM21.4161 25.1493V33.316C23.0473 33.4355 24.7543 33.4484 26.3216 32.9271C28.0519 32.428 28.9995 30.9302 28.9995 29.1354C29.0476 27.6061 28.2142 26.1387 26.7956 25.5868C25.2471 24.943 23.0876 24.9044 21.4161 25.1493Z" fill="#31A8FF"/>
<path d="M48.9463 31.7025C48.2293 31.3246 47.4656 31.0482 46.6762 30.8807C45.6617 30.642 41.6605 29.806 41.659 31.8981C41.6945 33.0662 43.5486 33.6384 44.3678 33.9721C47.2438 34.9595 50.4983 36.7244 50.4343 40.2724C50.5222 44.6892 46.2429 46.4548 42.5746 46.4552C40.665 46.475 38.6756 46.1792 36.9279 45.3595C36.761 45.2712 36.6536 45.0823 36.6608 44.8899V40.6637C36.642 40.4942 36.8238 40.3461 36.966 40.468C38.6784 41.5036 40.7081 42.0064 42.6891 42.0333C43.5636 42.0333 45.2967 41.9485 45.2836 40.6637C45.2836 39.4307 43.2103 38.8638 42.3838 38.5505C41.1858 38.1229 40.0499 37.5305 39.0072 36.7896C37.5501 35.7502 36.6359 34.0837 36.6608 32.2503C36.6523 28.0916 40.5914 26.2249 44.139 26.224C45.7974 26.2103 47.5783 26.3331 49.1221 27.0066C49.3441 27.072 49.3901 27.3058 49.3892 27.5153V31.4677C49.4033 31.713 49.1308 31.7965 48.9463 31.7025Z" fill="#31A8FF"/>
</svg>
