<svg width="65" height="65" viewBox="0 0 65 65" fill="none" xmlns="http://www.w3.org/2000/svg">
<path d="M4.0625 24.6458C4.0625 17.441 4.0625 13.8386 5.46466 11.0867C6.69803 8.66606 8.66606 6.69803 11.0867 5.46466C13.8386 4.0625 17.441 4.0625 24.6458 4.0625H40.3542C47.559 4.0625 51.1614 4.0625 53.9133 5.46466C56.3339 6.69803 58.302 8.66606 59.5353 11.0867C60.9375 13.8386 60.9375 17.441 60.9375 24.6458V40.3542C60.9375 47.559 60.9375 51.1614 59.5353 53.9133C58.302 56.3339 56.3339 58.302 53.9133 59.5353C51.1614 60.9375 47.559 60.9375 40.3542 60.9375H24.6458C17.441 60.9375 13.8386 60.9375 11.0867 59.5353C8.66606 58.302 6.69803 56.3339 5.46466 53.9133C4.0625 51.1614 4.0625 47.559 4.0625 40.3542V24.6458Z" fill="#330000"/>
<path d="M31.6234 39.8049H22.8099L21.0167 45.5182C20.9669 45.7305 20.7715 45.8808 20.5588 45.8704H16.0949C15.8403 45.8704 15.7513 45.7269 15.8278 45.4399L23.4585 22.8999C23.5348 22.6652 23.6112 22.3978 23.6875 22.0977C23.7873 21.5756 23.8384 21.0449 23.8401 20.5129C23.8182 20.3557 23.9564 20.2169 24.1072 20.2389H30.1735C30.3512 20.2389 30.453 20.3042 30.4788 20.4346L39.1397 45.479C39.216 45.7401 39.1396 45.8706 38.9107 45.8704H33.9507C33.7767 45.8901 33.6106 45.7709 33.5692 45.5965L31.6234 39.8049ZM24.1834 34.8743H30.2117C29.2213 31.4899 28.1035 28.1499 27.1976 24.7391C26.2202 28.1557 25.1538 31.5585 24.1834 34.8743Z" fill="#FF9A00"/>
<path d="M44.29 24.3868C43.9008 24.4029 43.5127 24.3345 43.1511 24.1861C42.7895 24.0378 42.4625 23.8128 42.1915 23.5259C41.9212 23.2266 41.7113 22.8755 41.5738 22.4927C41.4363 22.1099 41.3739 21.703 41.3902 21.2954C41.3763 20.8918 41.4456 20.4898 41.5935 20.1156C41.7415 19.7413 41.9647 19.4033 42.2487 19.1236C42.5299 18.8467 42.8618 18.6298 43.2253 18.4854C43.5888 18.341 43.9765 18.272 44.3662 18.2823C45.2819 18.2823 46.0005 18.5627 46.5219 19.1236C46.7851 19.4151 46.9897 19.7569 47.1239 20.1296C47.2581 20.5023 47.3193 20.8984 47.304 21.2954C47.32 21.7046 47.2556 22.1129 47.1147 22.4961C46.9738 22.8793 46.7592 23.2295 46.4837 23.5259C46.1958 23.817 45.8523 24.0438 45.4747 24.1919C45.0972 24.3401 44.6938 24.4065 44.29 24.3868ZM41.6573 45.4789V26.7738C41.6573 26.5391 41.7586 26.4216 41.9625 26.4216H46.6555C46.8588 26.4216 46.9605 26.539 46.9607 26.7738V45.4789C46.9607 45.74 46.859 45.8704 46.6555 45.8702H42.0007C41.7718 45.8702 41.6573 45.7398 41.6573 45.4789Z" fill="#FF9A00"/>
</svg>
