<svg width="48" height="48" viewBox="0 0 48 48" fill="none" xmlns="http://www.w3.org/2000/svg">
<rect y="0.401855" width="47.3939" height="47.3939" rx="3" fill="#42466B"/>
<path d="M22.5655 24.4627C22.4822 24.4315 22.4718 24.3169 22.5551 24.2753C23.1487 23.9629 23.6173 23.5151 23.9818 22.9423C24.3879 22.2967 24.5962 21.5989 24.5962 20.8283C24.5962 20.1202 24.4296 19.4745 24.0964 18.9122C23.7631 18.3395 23.357 17.8813 22.8571 17.5376C22.3573 17.1939 21.7949 16.9648 21.1701 16.8607C20.5453 16.7566 19.5872 16.6941 18.8062 16.6941H12.4538C11.8915 16.6941 11.8499 16.7462 11.8499 16.7982V32.9915C11.8499 33.054 11.8915 33.0957 12.4538 33.0957H17.8481C19.431 33.0853 20.7432 33.0436 21.2847 32.9811C22.149 32.8874 22.878 32.627 23.4715 32.2001C24.0651 31.7835 24.5337 31.2108 24.867 30.5131C25.2106 29.8049 25.3772 29.0864 25.3772 28.3366C25.3772 27.389 25.1169 26.5663 24.5858 25.8581C24.1068 25.2333 23.4299 24.7647 22.5655 24.4627ZM15.6092 19.537C15.6092 19.4745 15.6509 19.4329 15.7133 19.4329H16.9838C18.5146 19.4329 19.4519 19.4537 19.7747 19.485C20.3162 19.5474 20.7327 19.7453 21.0035 20.0577C21.2742 20.3701 21.42 20.7867 21.42 21.2969C21.42 21.828 21.2638 22.255 20.941 22.5778C20.6182 22.9007 20.1808 23.0985 19.6289 23.161C19.3165 23.2027 18.5354 23.2131 17.2546 23.2131H15.7237C15.6613 23.2131 15.6196 23.161 15.6196 23.1089V19.537H15.6092ZM21.5554 29.5862C21.2534 29.9299 20.8577 30.1486 20.3683 30.2423C20.0558 30.3048 19.3061 30.3464 18.1293 30.3464H15.7133C15.6509 30.3464 15.6092 30.2944 15.6092 30.2423V26.0664C15.6092 26.0039 15.6509 25.9623 15.7133 25.9623H17.744C19.2228 25.9623 20.1912 26.0456 20.639 26.2018C21.0868 26.358 21.42 26.6079 21.6596 26.9516C21.8991 27.2952 22.0136 27.7118 22.0136 28.2012C22.0136 28.774 21.8574 29.2426 21.5554 29.5862Z" fill="white"/>
<path d="M36.3436 22.2549C35.2709 21.0677 33.813 20.4741 31.9594 20.4741C30.314 20.4741 28.9498 21.0365 27.8668 22.1716C26.7838 23.3066 26.2527 24.8791 26.2527 26.8785C26.2527 28.5551 26.6588 29.9402 27.4815 31.044C28.5229 32.4186 30.1266 33.1059 32.2926 33.1059C33.6568 33.1059 34.8023 32.8039 35.7083 32.1895C36.5831 31.6064 37.6244 30.2318 37.6661 29.2008C37.6661 29.1279 37.6453 29.055 37.5724 29.0342L34.5316 29.0029C34.4691 28.9925 34.417 29.0342 34.3962 29.0862C34.0838 30.2422 33.0112 30.4609 32.3135 30.4609C31.5533 30.4609 30.9284 30.3151 30.4182 29.784C29.9287 29.2841 29.6684 28.7322 29.6267 27.847C29.6267 27.7741 29.6788 27.7221 29.7517 27.7221H37.7598C37.8223 27.7221 37.8848 27.67 37.8848 27.5971C37.916 24.3897 37.3849 23.4108 36.3436 22.2549ZM34.4795 25.4415H29.8038C29.7309 25.4415 29.6788 25.3894 29.6788 25.3165C29.7204 24.6292 29.9183 24.1606 30.3661 23.6815C30.8347 23.1713 31.4283 22.9213 32.1468 22.9213C32.8237 22.9213 33.3861 23.1609 33.8547 23.6399C34.3025 24.0981 34.5941 24.7021 34.5941 25.3165C34.6045 25.3894 34.5524 25.4415 34.4795 25.4415Z" fill="white"/>
<path d="M29.292 18.9643H34.8321C35.0924 18.9643 35.3111 18.7456 35.3111 18.4852V17.6834C35.3111 17.423 35.0924 17.2043 34.8321 17.2043H29.292C29.0317 17.2043 28.813 17.423 28.813 17.6834V18.4852C28.813 18.756 29.0317 18.9643 29.292 18.9643Z" fill="white"/>
</svg>
