<svg width="48" height="48" viewBox="0 0 48 48" fill="none" xmlns="http://www.w3.org/2000/svg">
<rect y="0.401855" width="47.3939" height="47.3939" rx="3" fill="#42466B"/>
<path d="M13.8246 17.1174L21.207 22.3378L21.2097 22.3399C22.1025 22.9713 22.5492 23.2871 23.0384 23.4092C23.4709 23.517 23.9254 23.517 24.3579 23.4092C24.8475 23.287 25.2955 22.9703 26.1899 22.3378L33.5723 17.1174M11.8499 28.9238V19.2757C11.8499 17.8538 11.8499 17.1423 12.1368 16.5991C12.3893 16.1214 12.7918 15.7333 13.2872 15.4899C13.8504 15.2131 14.5883 15.2131 16.0629 15.2131H31.3343C32.8089 15.2131 33.5452 15.2131 34.1084 15.4899C34.6038 15.7333 35.0077 16.1214 35.2601 16.5991C35.5468 17.1417 35.5468 17.8524 35.5468 19.2715V28.9281C35.5468 30.3472 35.5468 31.0568 35.2601 31.5994C35.0077 32.0772 34.6038 32.466 34.1084 32.7094C33.5457 32.9858 32.8098 32.9858 31.3381 32.9858H16.0586C14.5868 32.9858 13.8499 32.9858 13.2872 32.7094C12.7918 32.466 12.3893 32.0772 12.1368 31.5994C11.8499 31.0563 11.8499 30.3457 11.8499 28.9238Z" stroke="white" stroke-width="0.75" stroke-linecap="round" stroke-linejoin="round"/>
</svg>
