<svg width="48" height="48" viewBox="0 0 48 48" fill="none" xmlns="http://www.w3.org/2000/svg">
<rect width="47.3939" height="47.3939" rx="3" fill="#42466B"/>
<path d="M11.8479 19.5139H17.3834V34.991H11.8479V19.5139Z" fill="white"/>
<path d="M29.6215 19.4951C25.6689 19.4951 25.0117 21.6612 25.0117 21.6612V19.5136H20.7351V34.9907H25.0579C25.0579 34.9907 25.0579 27.3262 25.0579 26.0673C25.0579 24.7992 25.7892 23.133 28.1219 23.133C30.4453 23.133 30.723 25.4101 30.7045 25.6878C30.6767 25.9655 30.6582 34.9907 30.6582 34.9907H35.2217C35.2217 34.9907 35.2217 26.1877 35.2217 24.253C35.2217 20.7633 32.889 19.4951 29.6215 19.4951Z" fill="white"/>
<path d="M14.6237 17.3841C16.1523 17.3841 17.3914 16.1449 17.3914 14.6164C17.3914 13.0878 16.1523 11.8486 14.6237 11.8486C13.0951 11.8486 11.856 13.0878 11.856 14.6164C11.856 16.1449 13.0951 17.3841 14.6237 17.3841Z" fill="white"/>
</svg>
