<svg width="33" height="33" viewBox="0 0 33 33" fill="none" xmlns="http://www.w3.org/2000/svg">
<g clip-path="url(#clip0_357_1377)">
<path d="M31.0243 1.97598C27.7601 -1.28827 22.8857 -0.492142 16.5002 4.31348C10.1161 -0.492142 5.24309 -1.28964 1.97609 1.97598C-1.29091 5.2416 -0.492038 10.1146 4.31359 16.5001C-0.492038 22.8842 -1.28954 27.7586 1.97609 31.0242C2.58837 31.6591 3.32413 32.1619 4.13806 32.5017C4.952 32.8415 5.82688 33.0111 6.70884 33.0001C9.41896 33.0001 12.6915 31.5536 16.5002 28.6881C20.3076 31.5536 23.5801 33.0001 26.2916 33.0001C27.1735 33.0111 28.0484 32.8415 28.8624 32.5017C29.6763 32.1619 30.4121 31.6591 31.0243 31.0242C34.29 27.7586 33.4993 22.8856 28.6868 16.5001C33.4925 10.1146 34.29 5.2416 31.0243 1.97598V1.97598ZM26.2421 2.7886C26.7675 2.77278 27.2907 2.86451 27.7794 3.05816C28.2682 3.25181 28.7122 3.5433 29.0842 3.91473C31.485 6.31685 29.7112 10.3951 26.9007 14.2808C25.7485 12.9223 24.4505 11.5102 22.971 10.0293C21.4915 8.54847 20.0752 7.25047 18.7167 6.09685C21.3265 4.20898 24.0242 2.7886 26.2421 2.7886V2.7886ZM25.1778 16.5001C23.7877 18.1776 22.3151 19.7465 21.0308 21.0376C19.7466 22.3287 18.1777 23.7876 16.5002 25.1777C14.8227 23.7876 13.2538 22.315 11.9696 21.0376C10.6853 19.7602 9.21271 18.1776 7.82259 16.5001C9.21271 14.8226 10.6853 13.2523 11.9696 11.9695C13.2538 10.6866 14.8227 9.2126 16.5002 7.8211C18.1777 9.20985 19.7466 10.6852 21.0377 11.9695C22.3288 13.2537 23.7877 14.8226 25.1778 16.5001ZM3.91621 3.9161C4.28783 3.54403 4.73173 3.25203 5.22055 3.05811C5.70936 2.8642 6.23271 2.77247 6.75834 2.7886C8.97621 2.7886 11.674 4.20898 14.2837 6.09685C12.9252 7.25047 11.5117 8.54847 10.0295 10.0293C8.54721 11.5102 7.25196 12.9168 6.09834 14.2808C3.28921 10.3951 1.51271 6.31685 3.91621 3.9161V3.9161ZM3.91621 29.0786C1.51546 26.6778 3.28921 22.5982 6.09834 18.7138C7.25196 20.0723 8.54996 21.4845 10.0295 22.9653C11.509 24.4462 12.917 25.7469 14.2768 26.8992C10.3925 29.7124 6.31421 31.4876 3.91621 29.0841V29.0786ZM29.0787 29.0786C26.6793 31.4766 22.6025 29.7069 18.7181 26.8992C20.0738 25.7469 21.4873 24.4421 22.9655 22.9653C24.4436 21.4886 25.743 20.0778 26.8952 18.7138C29.7112 22.6051 31.4877 26.6833 29.0842 29.0841L29.0787 29.0786Z" fill="#B9311D"/>
<path d="M16.5 19.2505C18.0188 19.2505 19.25 18.0193 19.25 16.5005C19.25 14.9817 18.0188 13.7505 16.5 13.7505C14.9812 13.7505 13.75 14.9817 13.75 16.5005C13.75 18.0193 14.9812 19.2505 16.5 19.2505Z" fill="#B9311D"/>
</g>
<defs>
<clipPath id="clip0_357_1377">
<rect width="33" height="33" fill="white"/>
</clipPath>
</defs>
</svg>
