<svg width="48" height="48" viewBox="0 0 48 48" fill="none" xmlns="http://www.w3.org/2000/svg">
<rect y="0.401855" width="47.3939" height="47.3939" rx="3" fill="#42466B"/>
<path d="M20.4081 13.9056C20.0083 12.906 19.0402 12.2505 17.9635 12.2505H14.3423C12.9647 12.2505 11.8479 13.367 11.8479 14.7446C11.8479 26.4545 21.3406 35.9474 33.0502 35.9474C34.4277 35.9474 35.5442 34.8306 35.5442 33.4529L35.5448 29.8309C35.5448 28.7543 34.8895 27.7863 33.8899 27.3864L30.4191 25.9986C29.5212 25.6394 28.4989 25.8011 27.756 26.4202L26.8602 27.1673C25.8141 28.0391 24.2748 27.9698 23.3119 27.0068L20.7896 24.4821C19.8267 23.5192 19.7555 21.9812 20.6273 20.935L21.3743 20.0393C21.9934 19.2963 22.1564 18.2737 21.7973 17.3757L20.4081 13.9056Z" stroke="white" stroke-linecap="round" stroke-linejoin="round"/>
</svg>
